<svg xmlns="http://www.w3.org/2000/svg" width="512" height="512" style="fill:none;stroke:none"><g><path d="M246.216 47.421c-162.842 0-325.685-.016-488.527.098-3.801.003-4.774-.903-4.566-4.621.343-6.142.093-12.317.093-18.477 3.148-11.21 6.76-22.308 9.104-33.717 1.679-8.171 3.967-16.178 5.822-24.298 1.633-7.149 4.196-7.784 10.306-3.523 15.905 11.093 33.803 17.884 52.201 23.444 21.97 6.64 44.549 9.349 67.402 10.913 19.526 1.337 38.882.045 58.335-.916C-22.479-4.72-1.461-6.664 19.56-8.924c19.201-2.063 38.483-2.774 57.803-3.213 27.66-.628 54.04-7.034 78.934-19.448 10.876-5.424 22.065-10.257 33.948-13.206 6.572-1.63 7.893-.908 9.599 5.549 1.974 7.476 6.597 13.384 11.393 19.164 10.957 13.204 22.31 26.111 30.092 41.613 3.574 7.118 5.4 14.659 5.709 22.597.047 1.199.006 2.33-.822 3.289z" style="fill-opacity:1;fill:#0244fc;fill-rule:nonzero" transform="translate(247.784 465.579)"/><path d="M242.283 173.769c-.621-25.259-16.369-42.808-31.07-60.873-4.925-6.052-10.485-11.627-13.9-18.784-.998-2.092-2.061-4.196-2.695-6.408-1.888-6.59-1.794-6.549-8.636-4.816-13.782 3.491-26.384 9.923-39.169 15.833-22.372 10.342-45.816 16.191-70.418 16.61-32.676.558-65.06 4.525-97.563 7.226-40.834 3.393-81.763 5.909-122.501-1.541-28.472-5.207-55.742-13.758-80.461-29.293-.7-.439-1.446-.82-2.097-1.323-5.898-4.55-6.968-4.102-8.591 3.049-4.141 18.252-7.845 36.619-13.862 54.396-.406 1.197-.117 2.808-2.037 2.924v-24c.947-2.27.377-4.95 1.91-7.063 4.995-19.679 10.394-39.276 12.207-59.608.712-4.416 1.2-8.91.997-13.328-.368-8.039 3.85-15.013 4.637-22.678.45-4.368 1.213-8.465 3.295-12.308 1.728-5.713 3.626-11.382 5.153-17.149 6.501-24.547 20.165-44.315 39.774-60.183 2.852-2.308 5.671-4.723 7.659-7.83 7.505-11.725 16.618-21.994 27.393-30.796 1.022-2.049 3.493-2.382 4.82-4.069l1.156-1.044c1.424-.796 2.578-1.941 3.833-2.957l1.166-1.002c2.907-3.309 6.497-5.723 10.298-7.86 11.004-8.345 22.257-16.119 35.021-21.822 21.947-9.807 43.831-11.212 66.386-2.54 6.501 2.499 13.296 4.228 20.109 5.857 14.721 3.519 28.317 1.225 41.251-6.558 9.544-5.745 19.057-11.597 29.447-15.8 22.423-9.073 44.885-10.8 67.291-.113 12.716 6.065 23.056 14.919 30.348 27.136.482.806 1.411 1.39 2.222 1.946 5.527 3.791 10.565 8.169 14.838 13.308 4.127 4.961 9.245 7.957 15.46 9.406 6.809 1.589 13.49 3.542 19.795 6.722 16.939 8.541 26.346 25.53 24.194 44.329-1.072 9.37-5.457 17.05-12.756 22.985-4.648 3.78-9.617 7.175-14.16 11.071-5.065 4.343-4.945 6.023-.171 10.363 7.159 6.507 8.689 16.345 3.262 25.516-2.236 3.779-2.965 7.012-2.347 11.47 1.106 7.98-1.791 15.462-5.871 22.274-1.341 2.239-1.649 3.908-.719 6.36 1.585 4.175 1.096 8.488-.167 12.756a520.055 520.055 0 0 0-4.644 16.77c-.749 2.884.179 5.636 1.377 8.225 2.253 4.869 5.399 9.152 8.871 13.229 10.799 12.68 21.683 25.308 29.69 40.053 4.091 7.534 6.817 15.536 7.528 24.123.215 2.601.881 5.298-.553 7.809h-7z" style="fill-opacity:1;fill:#000;fill-rule:nonzero" transform="translate(251.717 339.231)"/><path d="M.955-3.531C.848-1.033.529 1.406-.955 3.531v-6l1.91-1.062z" style="fill-opacity:1;fill:#8d8b84;fill-rule:nonzero" transform="translate(1.955 462.469)"/><path d="M197.85 5.936c-14.169.141-28.096 2.007-41.904 5.237-13.757 3.218-27.748 5.252-41.832 6.368-9.281.736-18.603 1.067-27.912 1.278-15.79.356-31.625-.29-47.289 2.44-9.468 1.651-18.9 3.538-28.406 4.93-14.636 2.144-29.429 2.713-44.163 3.883-2.638.21-5.311.512-7.863 1.177-6.754 1.756-11.853 5.707-13.222 12.767-1.277 6.579 2.366 11.504 7.211 15.444 11.595 9.43 25.386 13.218 39.806 15.761 17.115 3.02 34.135.963 51.21.153 8.471-.402 16.984.011 25.448-.479 21.216-1.227 42.578-1.865 62.758-9.679 11.213-4.342 22.64-2.683 34.032-1.798 7.608.592 15.17 1.789 22.75 2.737 7.423.928 11.482 6.33 9.929 13.737-.986 4.702-2.574 9.278-3.9 13.909-.546 1.908-1.633 3.058-3.75 3.463-17.193 3.296-32.551 11.42-48.304 18.5-21.437 9.635-43.917 14.798-67.393 15.472-26.405.758-52.745 2.103-78.972 5.586-11.174 1.484-22.472 2.176-33.788 2.532-15.933.502-31.837 2.148-47.768 2.392-11.764.179-23.57-.846-35.322-1.789-20.432-1.638-40.505-5.415-59.984-11.858-14.867-4.917-29.246-11.008-42.507-19.512-2.865-1.837-5.002-4.366-7.443-6.613-1.529-1.408-1.695-3.122-1.369-5.039 4.546-26.676 7.885-53.561 15.839-79.598 6.387-20.911 16.427-39.014 34.126-52.607 5.294-4.065 10.206-9.09 13.822-14.944 7.097-11.491 16.353-20.899 27.162-28.872 13.485-9.947 25.441-21.944 40.367-29.965 22.755-12.228 46.217-17.345 71.435-7.992 9.815 3.64 19.877 6.563 30.314 8.009 15.097 2.091 28.173-3.35 40.639-10.879 14.878-8.985 30.031-17.462 47.637-19.45 22.684-2.562 42.934 2.507 58.537 20.575 2.383 2.761 1.965 3.677-1.528 4.313-3.829.697-7.636.332-11.449.432-26.671.698-52.517 5.41-77.232 15.706l-1.404.523c-1.335.483-2.708 1.253-2.066 2.818.725 1.769 2.25.805 3.417.301 6.579-2.841 13.357-5.118 20.252-7.032 22.929-6.369 46.266-9.357 70.078-8.333l1.482.117c2.51 1.306 7.142.749 7.186 3.901.038 2.692-4.306 2.138-6.746 2.608-22.487 4.327-43.79 12.183-64.641 21.421a54.893 54.893 0 0 0-3.594 1.749c-1.14.606-2.815 1.129-2.173 2.799.799 2.077 2.483 1.086 3.801.5 10.163-4.518 20.383-8.878 30.81-12.771 13.612-5.082 27.95-7.458 41.775-11.599 6.332-1.896 10.3-.556 13.716 3.938 7.783 10.235 18.279 15.027 30.559 18.01 17.175 4.17 27.964 15.625 30.547 33.332 1.852 12.705-4.888 21.867-14.722 29.14-6.946 5.138-14.16 10.099-16.927 18.989-1.251 1.04.109 2.803-1.072 3.862z" style="fill-opacity:1;fill:#659845;fill-rule:nonzero" transform="translate(253.135 317.893)"/><path d="M-12.061-17.702c35.189.332 69.092-2.373 102.375-10.977 10.984-2.838 22.155-1.959 33.268-.793 4.943.519 7.477 7.658 4.935 13.494-2.022 4.642-4.953 7.309-10.675 6.742-15.542-1.543-31.092-2.924-46.72-3.674-16.829-.809-33.191.576-49.376 5.19C4.312-2.749-13.134 2.213-30.712 6.63c-19.872 4.993-40.153 5.423-60.528 4.282-2.728-.153-7.713-1.927-7.757 2.461-.039 3.879 4.819 2.085 7.517 2.373 36.704 3.911 71.464-5.492 105.776-16.469 25.216-8.066 50.688-8.45 76.54-6.007 9.107.86 18.18 2.078 27.294 2.82 4.298.35 5.707 2.853 6.002 6.471.493 6.027-1.529 11.466-4.261 16.702-1.04 1.993-2.596 1.896-4.63 1.706-14.904-1.399-29.694-3.913-44.694-4.395-6.594-.212-13.045.468-19.109 2.947-13.313 5.443-27.393 6.863-41.464 8.105-25.384 2.241-50.889 1.981-76.326 3.208-14.155.683-27.787-2.359-41.174-6.596-5.749-1.819-10.958-4.781-15.898-8.252-4.774-3.352-7.635-7.676-6.2-13.586 1.465-6.032 6.331-8.297 11.979-8.895 6.78-.718 13.582-1.343 20.39-1.639 21.672-.938 42.887-5.166 64.202-8.694 7.279-1.205 14.625-.671 20.992-.874z" style="fill-opacity:1;fill:#a65934;fill-rule:nonzero" transform="translate(332.905 359.395)"/><path d="M-1.396 1.93C-1.238.587-1.832-.964-.324-1.931-1.04-.744 1.833 1.441-1.396 1.93z" style="fill-opacity:1;fill:#708e59;fill-rule:nonzero" transform="translate(452.382 321.899)"/><path d="M-87.517 39.906c-8.343.641-20.638-5.358-32.848-12.151-10.898-6.064-19.408-15.001-28.916-22.732-3.881-3.156-3.483-6.765.69-9.3 12.911-7.843 25.34-16.771 38.978-23.059 18.371-8.47 37.761-13.211 58.483-7.938 15.207 3.87 29.691 9.633 44.334 15.019 5.27 1.939 8.218 6.489 10.697 11.35 2.634 5.166 2.745 5.133 6.768 1.264 17.648-16.975 39.187-24.691 63.097-27.995 17.868-2.469 33.794 2.913 49.869 8.899.623.233 1.2.644 1.838.776 16.247 3.353 22.674 15.309 26.446 29.801 1.244 4.784-.418 7.998-4.058 10.724-4.631 3.47-9.996 5.317-15.494 6.618-16.167 3.828-32.358 7.57-48.594 11.089-16.95 3.674-33.749 1.565-50.385-2.21-11.46-2.599-23.073-4.735-33.922-9.545-.968-.429-2.017-.365-2.887.185-10.922 6.91-23.622 8.685-35.688 12.201-13.762 4.01-27.888 6.215-48.408 7.004z" style="fill-opacity:1;fill:#000;fill-rule:nonzero" transform="translate(325.076 272.565)"/><path d="M50.283 3.303C39.018.652 28.45-1.419 17.754-2.885c-20.788-2.851-40.62.838-59.914 8.443-2.156.85-4.257 1.841-6.407 2.708-1.264.51-2.891 1.941-3.706-.213-.698-1.844 1.139-2.535 2.488-3.125 3.647-1.597 7.297-3.193 11.002-4.647 26.718-10.487 53.794-9.803 81.078-2.539 2.563.682 5.177 1.176 7.773 1.734 1.4.301 2.903 1.065 2.727 2.413-.204 1.567-1.897 1.539-2.512 1.414z" style="fill-opacity:1;fill:#010201;fill-rule:nonzero" transform="translate(213.578 219.657)"/><path d="M18.642-9.42c.925.15 2.223-.16 2.303 1.257.066 1.15-.918 1.673-1.907 1.987-2.377.756-4.744 1.553-7.147 2.219C2.246-1.28-7.182 1.893-15.712 7.317c-1.148.73-2.827 2.263-3.944.59-1.354-2.029 1.104-2.888 2.246-3.646C-6.738-2.835 5.363-6.334 17.646-9.325l.996-.095z" style="fill-opacity:1;fill:#040603;fill-rule:nonzero" transform="translate(188.645 238.243)"/><path d="M-11.655-13.057c.992.079 1.489.724 1.868 1.47C-5.302-2.756 2.21 2.858 10.523 7.659c1.217.702 3.061 1.615 2.055 3.388-1.14 2.01-2.736.359-3.813-.33C.654 5.524-7.754.608-12.019-8.711c-.698-1.528-1.565-3.07.364-4.346z" style="fill-opacity:1;fill:#050703;fill-rule:nonzero" transform="translate(188.919 397.615)"/><path d="M-1.572-3.122C2.764-3.243 5.823-1.883 8.911-.707c1.059.403 2.335 1.026 1.674 2.525-.627 1.425-2.038 1.044-3.052.66C2.231.464-3.096.152-8.556 1.764c-.917.269-2.132.275-2.422-1.018-.268-1.196.809-1.833 1.623-2.215 2.736-1.287 5.723-1.493 7.783-1.653z" style="fill-opacity:1;fill:#040603;fill-rule:nonzero" transform="translate(154.193 291.257)"/><path d="M.167-3.6c.616.672 1.005 1.127 1.005 1.127C1.104-.439 2.234 1.838.109 3.46l-1.183-.463C-2.234.662-1.674-1.409.167-3.6z" style="fill-opacity:1;fill:#5f9041;fill-rule:nonzero" transform="translate(69.668 303.75)"/><path d="M-10.014 33.137c-19.767.887-35.488-9.713-50.801-21.118-4.12-3.069-7.7-6.862-11.531-10.32-1.794-1.621-2.382-2.862.311-4.457 10.871-6.435 21.52-13.248 32.449-19.577C-25.488-30.5-10.05-34.024 6.132-33.777c13.295.203 25.563 5.245 37.984 9.315 5.657 1.854 11.169 4.144 16.758 6.207 11.511 4.249 13.854 13.387 9.635 24.703-3.717 9.969-10.814 12.806-19.405 15.218-19.833 5.571-39.623 11.305-61.118 11.471z" style="fill-opacity:1;fill:#fefefe;fill-rule:nonzero" transform="translate(253.191 273.822)"/><path d="M-10.509 30.47c-14.135 1.027-27.701-2.352-41.277-5.465-5.48-1.256-10.827-3.093-16.234-4.661-3.424-.994-4.617-2.547-3.261-6.489C-66.217-.872-54.763-9.219-42.138-16.592c12.471-7.283 26.374-9.461 40.292-11.998 15.952-2.908 30.67.945 45.263 6.514 3.652 1.393 7.284 2.837 10.932 4.24 9.679 3.722 17.945 15.565 18.202 25.854.086 3.451-2.1 5.05-4.638 6.365-8.237 4.268-17.33 5.871-26.216 7.987-10.207 2.432-20.557 4.262-30.809 6.515-2.484.546-10.195 1.063-12.651 1.226-.363-.397 4.777-1.669 4.875-2.197.897-2.02 2.932-2.617 4.624-3.599 5.767-3.345 10.26-8.041 13.513-13.724 3.891-6.799 2.59-14.041-1.58-19.845-5.649-7.86-13.712-12.458-23.946-12.009-2.537.111-3.961.637-2.366 3.505.651 1.17.737 2.557.45 3.899-.606 2.847-2.086 4.936-5.169 5.303-2.962.351-4.543-1.341-5.596-3.931-1.966-4.828-2.367-4.869-6.084-1.197-11.392 11.251-9.169 28.843 4.433 36.802 4.266 2.496 8.396 4.617 13.515 4.148 1.382-.127 6.284-.517 6.981 1.304-2.795 2.154-5.244 1.542-12.396 1.9z" style="fill-opacity:1;fill:#fefefe;fill-rule:nonzero" transform="translate(400.509 270.553)"/><path d="M-4.984-28.418c11.25 1.283 22.748 4.457 29.858 15.93 7.688 12.407 3.824 26.196-9.071 32.916-10.316 5.375-21.256 7.99-32.654 4.734-9.261-2.646-15.711-14.136-15.341-23.775.356-9.258 4.304-16.442 10.597-22.724.763-.762 3.565-3.439 4.611-3.887.787-.335-.202 1.368.556 1.765 1.921 1.005-.738 2.815-.763 4.191-.085 4.737 1.4 6.989 5.328 6.99 4.284.001 7.041-2.437 6.791-6.007-.285-4.062-3.361-6.342-7.828-5.595-.757.127-3.039 2.094-3.465 1.06-.251-.61-1.174-1.622-.758-2.218 2.131-3.054 8.076-2.88 12.139-3.38z" style="fill-opacity:1;fill:#000;fill-rule:nonzero" transform="translate(249.07 273.28)"/><path d="m5.941 27.132-5.052-.001c-1.16-.069-2.33-.272-3.479-.186-10.459.782-17.242-5.682-23.991-12.164-1.789-1.717-1.969-4.326-2.182-6.47-1.011-10.178 1.314-19.387 9.184-26.559 1.355-1.234 3.683-2.705 8.697-3.976.632-.175-.641 1.271-2.33 3.166 0 0-.71 1.073-.838 2.006-.03 2.383.075 5.516 3.723 6.101 2.289.367 4.169-.578 4.967-2.456 1.108-2.606 1.184-5.305-.93-7.472 0 0-1.648-1.1-4.585-.058-2.256.523-.774-.961-.774-.961 1.137-.603 3.505-1.124 3.505-1.124 18.522-4.705 37.918 8.069 34.983 27.478-1.182 7.83-7.205 12.888-13.069 17.609-2.409 1.938-5.208 3.392-7.829 5.067z" style="fill-opacity:1;fill:#000;fill-rule:nonzero" transform="translate(398.096 271.99)"/><path d="M.027-7.096c3.884-.105 7.376 3.153 7.572 7.064.207 4.166-2.47 7.163-6.43 7.197-4.082.036-8.975-3.879-8.886-7.111.095-3.456 3.986-7.048 7.744-7.15z" style="fill-opacity:1;fill:#fcfcfc;fill-rule:nonzero" transform="translate(255.687 265.046)"/><path d="M-5.105.176c-.054-3.192 1.071-4.915 4.061-4.896 3.19.021 6.024 1.633 6.114 4.596.089 2.937-2.574 4.863-5.806 4.833C-3.897 4.68-4.895 2.502-5.105.176z" style="fill-opacity:1;fill:#fefefe;fill-rule:nonzero" transform="translate(238.688 272.351)"/><path d="M-.436-6.941C3.673-6.971 6.323-4.269 6.368 0c.043 3.955-2.576 6.777-6.377 6.875-3.717.096-6.361-2.71-6.38-6.776-.022-4.38 2.205-7.014 5.953-7.04z" style="fill-opacity:1;fill:#fcfcfc;fill-rule:nonzero" transform="translate(405.886 265.707)"/><path d="M-5.211-1.093c.312-1.81-.378-5.341 4.186-5.388C2.087-6.513 5.401-2.994 5.508.455c.08 2.587-3.652 6.058-6.548 5.659-3.431-.475-4.447-3.012-4.171-7.207z" style="fill-opacity:1;fill:#fcfcfb;fill-rule:nonzero" transform="translate(389.27 272.477)"/><path d="M-5.44 1.927C-4.086.693 2.482-1.927 3.421-1.709 5.44-1.241.864-.383.39 1.227" style="fill-opacity:1;fill:#000;fill-rule:nonzero" transform="translate(383.958 251.815)"/></g></svg>